<svg xmlns="http://www.w3.org/2000/svg" viewBox="0 0 64 64">
  <defs>
    <linearGradient id="g" x1="0" x2="0" y1="0" y2="1">
      <stop offset="0" stop-color="#9b59b6"/>
      <stop offset="1" stop-color="#2c3e50"/>
    </linearGradient>
  </defs>
  <rect width="64" height="64" rx="12" fill="url(#g)"/>
  <!-- Crown -->
  <path d="M8 38 L16 22 L32 34 L48 20 L56 38 L8 38 Z" fill="#f1c40f" stroke="#000" stroke-width="2"/>
  <rect x="12" y="38" width="40" height="8" rx="2" fill="#d4ac0d" stroke="#000" stroke-width="1.5"/>
  <!-- SK text -->
  <g fill="#ecf0f1">
    <path d="M14 54 q6 0 6-5 q0-3 -5-4 q-3-0.7 -3-2.2 q0-1.6 2.6-1.6 q2 0 3.8 0.8 l1.2-2.8 q-2.2-1.1 -5-1.1 q-3.2 0 -5 1.4 q-1.8 1.3 -1.8 3.6 q0 2.2 1.6 3.5 q1.6 1.3 4.3 1.8 q2 0.4 2 1.7 q0 1.7 -2.9 1.7 q-2.4 0 -4.5-1.1 l-1.1 2.7 q2.3 1.2 6 1.2z"/>
    <path d="M32 54 v-6 l5.5 6 h4.2 l-6.4-6.8 l6.7-6.2 h-4.5 l-5.5 5.3 v-5.3 h-3.6 v13 h3.6z"/>
  </g>
</svg>

